<svg width="24" height="24" viewBox="0 0 24 24" fill="none" xmlns="http://www.w3.org/2000/svg">
<path d="M2.99998 12C2.99998 11.6022 3.15801 11.2206 3.43932 10.9393C3.72062 10.658 4.10215 10.5 4.49998 10.5H16.38L12.44 6.56C12.175 6.27565 12.0308 5.89956 12.0376 5.51095C12.0445 5.12235 12.2019 4.75158 12.4767 4.47675C12.7516 4.20193 13.1223 4.0445 13.5109 4.03765C13.8995 4.03079 14.2756 4.17504 14.56 4.44L21.06 10.94C21.3409 11.2212 21.4987 11.6025 21.4987 12C21.4987 12.3975 21.3409 12.7787 21.06 13.06L14.56 19.56C14.2756 19.825 13.8995 19.9692 13.5109 19.9623C13.1223 19.9555 12.7516 19.7981 12.4767 19.5232C12.2019 19.2484 12.0445 18.8776 12.0376 18.489C12.0308 18.1004 12.175 17.7243 12.44 17.44L16.38 13.5H4.49998C4.10215 13.5 3.72062 13.342 3.43932 13.0607C3.15801 12.7794 2.99998 12.3978 2.99998 12Z" fill="white"/>
</svg>
