<svg width="24" height="24" viewBox="0 0 24 24" fill="none" xmlns="http://www.w3.org/2000/svg">
<path d="M12 12.7082L6.75399 17.9542C6.66065 18.0476 6.54599 18.0976 6.40999 18.1042C6.27399 18.1109 6.15265 18.0609 6.04599 17.9542C5.93932 17.8476 5.88599 17.7296 5.88599 17.6002C5.88599 17.4709 5.93932 17.3529 6.04599 17.2462L11.292 12.0002L6.04599 6.75423C5.95265 6.6609 5.90265 6.54623 5.89599 6.41023C5.88932 6.27423 5.93932 6.1529 6.04599 6.04623C6.15265 5.93956 6.27065 5.88623 6.39999 5.88623C6.52932 5.88623 6.64732 5.93956 6.75399 6.04623L12 11.2922L17.246 6.04623C17.3393 5.9529 17.4543 5.9029 17.591 5.89623C17.7263 5.88956 17.8473 5.93956 17.954 6.04623C18.0607 6.1529 18.114 6.2709 18.114 6.40023C18.114 6.52956 18.0607 6.64756 17.954 6.75423L12.708 12.0002L17.954 17.2462C18.0473 17.3396 18.0973 17.4546 18.104 17.5912C18.1107 17.7266 18.0607 17.8476 17.954 17.9542C17.8473 18.0609 17.7293 18.1142 17.6 18.1142C17.4707 18.1142 17.3527 18.0609 17.246 17.9542L12 12.7082Z" fill="black"/>
</svg>
