<svg width="100" height="90" viewBox="0 0 100 90" fill="none" xmlns="http://www.w3.org/2000/svg">
<g clip-path="url(#clip0_26_51)">
<path d="M33.2491 32.7847V35.6221C32.5935 35.6221 31.911 35.4394 31.3628 35.6705C30.7556 35.9284 29.8205 36.5303 29.7936 37.0301C29.6485 39.7655 29.2723 42.6298 31.2123 44.903C32.1313 45.9832 33.1577 46.7893 34.2594 46.8753C34.2325 42.6836 34.2003 38.5456 34.1842 34.413C34.1788 32.3816 34.5442 31.5271 36.2693 31.065C38.8864 30.3664 41.5573 29.7215 44.2335 29.5388C49.0218 29.2163 53.8315 29.2163 58.5821 30.2535C59.1356 30.3771 59.6891 30.5115 60.2319 30.6888C62.4728 31.4143 62.8759 32.0162 62.849 34.6924C62.8222 37.9276 62.8759 41.1735 62.6717 44.3979C62.4299 48.1543 60.9413 51.2873 58.4477 53.7755C57.9372 54.286 57.5449 54.9739 56.986 55.3823C56.5131 55.7316 55.879 55.9681 55.3147 55.9734C50.7952 56.011 46.2756 56.0379 41.7615 55.9304C41.0091 55.9143 40.1224 55.436 39.5582 54.8503C38.3168 53.5551 37.2635 52.0289 36.0866 50.6478C35.877 50.4006 35.447 50.3307 35.1085 50.2931C30.3256 49.7772 27.0421 45.7252 27.0206 40.2115C27.0153 38.739 27.0206 37.2343 27.2517 35.7995C27.5634 33.8863 28.8639 32.8223 30.5621 32.79C31.4058 32.7739 32.2549 32.79 33.2437 32.79L33.2491 32.7847ZM61.2637 33.1071C60.377 32.7417 59.6945 32.301 58.969 32.1828C56.454 31.7851 53.939 31.3391 51.4078 31.2047C46.9313 30.9683 42.4494 31.0059 38.0481 32.1882C37.3011 32.387 36.6025 32.8384 35.7856 33.22C38.838 36.5518 58.1468 36.5035 61.2691 33.1071H61.2637Z" fill="#1B46AB"/>
<path d="M68.4759 10.1494C63.6285 10.1494 58.7866 10.1494 53.9392 10.1494C47.8774 10.1494 41.8209 10.1602 35.759 10.1602C28.8266 10.1602 23.329 16.5391 23.3558 24.5141C23.3773 30.7211 23.3666 36.928 23.3666 43.135C23.3666 50.2555 27.3326 55.9681 33.3945 57.5373C33.9802 57.6877 34.5875 57.7898 35.1894 57.7898C43.4331 57.8167 51.6714 57.8382 59.9151 57.8221C66.3263 57.806 71.8292 51.4324 71.8615 43.9733C71.8937 35.3104 71.9851 26.6476 71.8024 17.9901C71.7486 15.3783 72.8396 13.9381 74.4195 12.2829C74.4464 12.8687 74.4786 13.2556 74.4786 13.6425C74.4786 23.6489 74.4947 33.6553 74.4786 43.6562C74.4625 53.3885 67.9868 60.81 59.5067 60.8208C51.5102 60.8315 43.5083 60.8208 35.5118 60.8046C27.5207 60.7885 20.7602 53.0124 20.7495 43.8497C20.7441 37.2236 20.7495 30.6028 20.7495 23.9767C20.7387 14.7334 27.2627 7.13461 35.356 7.10774C47.5979 7.06475 59.8399 7.09162 72.0764 7.14536C72.6568 7.14536 73.5543 7.52691 73.7263 8.0052C73.8982 8.47274 73.4791 9.44543 73.076 9.93983C70.7061 12.8472 68.2985 15.7169 65.8157 18.5006C65.3482 19.0219 64.4937 19.3013 63.8274 19.2745C63.5157 19.2637 63.0481 18.2695 63.0051 17.6838C62.9675 17.2162 63.376 16.5875 63.7253 16.2059C65.4181 14.368 67.1539 12.5892 68.8789 10.7836C68.7446 10.5686 68.6102 10.3536 68.4759 10.1387V10.1494Z" fill="#1B46AB"/>
<path d="M53.2727 17.9579C53.4339 18.1137 53.8799 18.3663 54.0627 18.7747C54.1486 18.9628 53.794 19.5701 53.5145 19.785C51.9561 20.9888 51.2037 22.4935 51.6659 24.7291C51.8217 25.4815 51.6229 26.3628 51.4455 27.1474C51.4025 27.3301 50.5696 27.5397 50.4728 27.4C49.3658 25.7717 48.7639 23.9338 49.2637 21.8594C49.7527 19.8442 50.8866 18.5007 52.7084 18.017C52.7836 17.9955 52.8696 18.0009 53.2673 17.9579H53.2727Z" fill="#1B46AB"/>
<path d="M48.038 19.9409C48.0918 20.3869 48.3282 21.0103 48.1724 21.1984C47.0761 22.5257 46.9471 24.0305 47.2911 25.7125C47.377 26.1317 47.2911 26.653 47.146 27.0668C46.8773 27.8567 46.3022 28.0287 45.824 27.4053C44.8137 26.0887 44.3837 24.5195 44.7707 22.7676C45.1253 21.1554 46.3345 20.6395 47.4953 20.086C47.5705 20.0537 47.6511 20.043 48.038 19.9355V19.9409Z" fill="#FFCA1A"/>
<path d="M20.4482 79.0494C20.4482 80.4036 20.1419 81.387 19.5292 81.9997C18.9166 82.6123 17.9332 82.9186 16.5789 82.9186H11.7423C10.3881 82.9186 9.40463 82.6123 8.792 81.9997C8.17936 81.387 7.87305 80.4036 7.87305 79.0494V72.8585C7.87305 71.5043 8.17936 70.5208 8.792 69.9082C9.40463 69.2956 10.3881 68.9893 11.7423 68.9893H16.5789C17.9332 68.9893 18.9166 69.2956 19.5292 69.9082C20.1419 70.5208 20.4482 71.5043 20.4482 72.8585V79.0494ZM16.9658 72.8585C16.9658 72.0847 16.5789 71.6977 15.8051 71.6977H12.5162C11.7423 71.6977 11.3554 72.0847 11.3554 72.8585V79.0494C11.3554 79.8232 11.7423 80.2102 12.5162 80.2102H15.8051C16.5789 80.2102 16.9658 79.8232 16.9658 79.0494V72.8585Z" fill="#1B46AB"/>
<path d="M27.7997 82.7253H24.3174V69.1829H35.0546V71.8913H27.7997V75.0835H33.5069V77.792H27.7997V82.7253Z" fill="#1B46AB"/>
<path d="M41.8261 82.7253H38.3438V69.1829H49.081V71.8913H41.8261V75.0835H47.5333V77.792H41.8261V82.7253Z" fill="#1B46AB"/>
<path d="M51.961 79.9201C55.4971 80.1136 57.8885 80.2103 59.1407 80.2103C59.4363 80.2103 59.6727 80.1243 59.8447 79.947C60.0166 79.7696 60.108 79.5385 60.108 79.243V77.5018H55.6583C54.3041 77.5018 53.3206 77.1955 52.708 76.5828C52.0954 75.9702 51.7891 74.9868 51.7891 73.6325V73.0521C51.7891 71.6979 52.0954 70.7144 52.708 70.1018C53.3206 69.4892 54.3041 69.1829 55.6583 69.1829H62.4511V71.8913H56.4322C55.6583 71.8913 55.2714 72.2783 55.2714 73.0521V73.4391C55.2714 74.2129 55.6583 74.5998 56.4322 74.5998H59.9145C61.1774 74.5998 62.1071 74.8954 62.6983 75.4919C63.2894 76.0884 63.5903 77.0128 63.5903 78.2757V79.243C63.5903 80.5059 63.2948 81.4356 62.6983 82.0267C62.1071 82.6178 61.1774 82.9188 59.9145 82.9188C59.2589 82.9188 58.5603 82.908 57.8241 82.8812L56.0453 82.8059C54.7286 82.7414 53.369 82.6501 51.961 82.5372V79.9255V79.9201Z" fill="#1B46AB"/>
<path d="M78.0038 82.7253H67.2666V69.1829H78.0038V71.8913H70.7489V74.5031H76.4561V77.2116H70.7489V80.0168H78.0038V82.7253Z" fill="#1B46AB"/>
<path d="M88.0636 82.7253H84.5813V71.8913H80.5186V69.1829H92.1264V71.8913H88.0636V82.7253Z" fill="#1B46AB"/>
</g>
<defs>
<clipPath id="clip0_26_51">
<rect width="84.2534" height="75.8324" fill="white" transform="translate(7.87305 7.08636)"/>
</clipPath>
</defs>
</svg>
