<svg width="152" height="137" viewBox="0 0 152 137" fill="none" xmlns="http://www.w3.org/2000/svg">
<g clip-path="url(#clip0_636_684)">
<path d="M36.9067 36.4253V39.5779C36.1789 39.5779 35.4214 39.3749 34.8129 39.6316C34.1389 39.9182 33.1009 40.587 33.0711 41.1422C32.9101 44.1814 32.4925 47.3638 34.6459 49.8894C35.6659 51.0895 36.8053 51.9852 38.0281 52.0807C37.9983 47.4235 37.9625 42.826 37.9446 38.2345C37.9387 35.9775 38.3443 35.0282 40.2591 34.5147C43.1641 33.7385 46.1288 33.022 49.0994 32.819C54.4143 32.4608 59.7531 32.4608 65.0263 33.6131C65.6407 33.7504 66.2551 33.8997 66.8576 34.0967C69.3451 34.9028 69.7924 35.5715 69.7626 38.545C69.7328 42.1394 69.7924 45.7457 69.5658 49.3282C69.2973 53.5017 67.645 56.9827 64.8772 59.7471C64.3105 60.3144 63.875 61.0786 63.2547 61.5324C62.7297 61.9205 62.0258 62.1832 61.3995 62.1892C56.3828 62.231 51.3662 62.2608 46.3555 62.1414C45.5203 62.1235 44.5361 61.5921 43.9098 60.9413C42.5318 59.5023 41.3626 57.8066 40.0563 56.2722C39.8236 55.9975 39.3464 55.9199 38.9706 55.8781C33.6617 55.3049 30.017 50.8029 29.9931 44.6769C29.9871 43.041 29.9931 41.3691 30.2496 39.7749C30.5956 37.6494 32.0391 36.4671 33.9241 36.4313C34.8607 36.4134 35.8031 36.4313 36.9007 36.4313L36.9067 36.4253ZM68.0029 36.7836C67.0187 36.3776 66.2611 35.888 65.4558 35.7566C62.6641 35.3148 59.8724 34.8192 57.0629 34.6699C52.0939 34.4072 47.119 34.449 42.2336 35.7626C41.4044 35.9835 40.6289 36.4851 39.7222 36.909C43.1104 40.6109 64.5431 40.5571 68.0089 36.7836H68.0029Z" fill="white"/>
<path d="M76.0081 11.2765C70.6276 11.2765 65.253 11.2765 59.8724 11.2765C53.1438 11.2765 46.4211 11.2884 39.6924 11.2884C31.9974 11.2884 25.8951 18.3757 25.9249 27.2363C25.9487 34.1326 25.9368 41.0288 25.9368 47.925C25.9368 55.8363 30.3391 62.1832 37.0677 63.9267C37.7179 64.0939 38.392 64.2073 39.0601 64.2073C48.2106 64.2372 57.3552 64.261 66.5057 64.2431C73.6221 64.2252 79.7304 57.1439 79.7661 48.8565C79.8019 39.2316 79.9033 29.6067 79.7005 19.9878C79.6409 17.0861 80.8518 15.4859 82.6055 13.6469C82.6354 14.2977 82.6712 14.7276 82.6712 15.1575C82.6712 26.2751 82.6891 37.3926 82.6712 48.5042C82.6533 59.3172 75.4653 67.5629 66.0523 67.5748C57.1762 67.5868 48.2941 67.5748 39.418 67.5569C30.5479 67.539 23.0437 58.8993 23.0318 48.7191C23.0258 41.3572 23.0318 34.0012 23.0318 26.6393C23.0199 16.3696 30.2615 7.9269 39.245 7.89705C52.8336 7.84928 66.4222 7.87914 80.0048 7.93885C80.649 7.93885 81.6452 8.36277 81.836 8.89417C82.0269 9.41362 81.5617 10.4943 81.1143 11.0436C78.4836 14.2738 75.8113 17.4622 73.0554 20.5551C72.5364 21.1342 71.588 21.4447 70.8483 21.4149C70.5023 21.4029 69.9833 20.2983 69.9356 19.6475C69.8939 19.1281 70.3472 18.4295 70.7349 18.0055C72.614 15.9635 74.5407 13.9872 76.4555 11.9811C76.3064 11.7422 76.1572 11.5034 76.0081 11.2646V11.2765Z" fill="white"/>
<path d="M59.1327 19.9521C59.3117 20.1252 59.8068 20.4058 60.0096 20.8596C60.105 21.0686 59.7113 21.7433 59.4012 21.9821C57.6713 23.3196 56.8362 24.9914 57.3492 27.4752C57.5221 28.3111 57.3014 29.2903 57.1046 30.1621C57.0569 30.3651 56.1323 30.5979 56.0249 30.4427C54.7961 28.6335 54.128 26.5915 54.6827 24.2868C55.2256 22.0478 56.4842 20.5551 58.5064 20.0177C58.5899 19.9939 58.6853 19.9998 59.1268 19.9521H59.1327Z" fill="white"/>
<path d="M53.3227 22.1552C53.3823 22.6508 53.6448 23.3434 53.4718 23.5524C52.2549 25.0272 52.1117 26.699 52.4935 28.5678C52.589 29.0335 52.4935 29.6127 52.3325 30.0725C52.0342 30.9502 51.3959 31.1412 50.865 30.4486C49.7436 28.9858 49.2664 27.2423 49.6959 25.2959C50.0896 23.5046 51.4317 22.9314 52.7202 22.3164C52.8037 22.2806 52.8932 22.2687 53.3227 22.1493V22.1552Z" fill="white"/>
<path d="M22.6978 87.8277C22.6978 89.3323 22.3577 90.4249 21.6777 91.1056C20.9977 91.7863 19.9061 92.1266 18.4029 92.1266H13.0342C11.531 92.1266 10.4394 91.7863 9.75939 91.1056C9.07936 90.4249 8.73935 89.3323 8.73935 87.8277V80.9493C8.73935 79.4447 9.07936 78.3521 9.75939 77.6714C10.4394 76.9907 11.531 76.6504 13.0342 76.6504H18.4029C19.9061 76.6504 20.9977 76.9907 21.6777 77.6714C22.3577 78.3521 22.6978 79.4447 22.6978 80.9493V87.8277ZM18.8323 80.9493C18.8323 80.0895 18.4029 79.6597 17.5439 79.6597H13.8932C13.0342 79.6597 12.6048 80.0895 12.6048 80.9493V87.8277C12.6048 88.6874 13.0342 89.1173 13.8932 89.1173H17.5439C18.4029 89.1173 18.8323 88.6874 18.8323 87.8277V80.9493Z" fill="white"/>
<path d="M30.8581 91.9118H26.9927V76.8654H38.911V79.8747H30.8581V83.4213H37.1931V86.4306H30.8581V91.9118Z" fill="white"/>
<path d="M46.427 91.9118H42.5616V76.8654H54.4799V79.8747H46.427V83.4213H52.762V86.4306H46.427V91.9118Z" fill="white"/>
<path d="M57.6772 88.795C61.6023 89.01 64.2568 89.1175 65.6467 89.1175C65.9747 89.1175 66.2372 89.0219 66.4281 88.8249C66.619 88.6278 66.7204 88.3711 66.7204 88.0427V86.1082H61.7812C60.278 86.1082 59.1864 85.7679 58.5064 85.0872C57.8264 84.4065 57.4864 83.3139 57.4864 81.8092V81.1644C57.4864 79.6598 57.8264 78.5671 58.5064 77.8864C59.1864 77.2058 60.278 76.8654 61.7812 76.8654H69.3212V79.8747H62.6402C61.7813 79.8747 61.3518 80.3046 61.3518 81.1644V81.5943C61.3518 82.4541 61.7813 82.884 62.6402 82.884H66.5056C67.9074 82.884 68.9394 83.2124 69.5956 83.8751C70.2517 84.5379 70.5858 85.5648 70.5858 86.968V88.0427C70.5858 89.4458 70.2577 90.4788 69.5956 91.1356C68.9394 91.7923 67.9074 92.1267 66.5056 92.1267C65.7779 92.1267 65.0024 92.1148 64.1852 92.0849L62.2107 92.0013C60.7493 91.9297 59.2401 91.8282 57.6772 91.7028V88.801V88.795Z" fill="white"/>
<path d="M86.5843 91.9118H74.666V76.8654H86.5843V79.8747H78.5314V82.7765H84.8663V85.7858H78.5314V88.9025H86.5843V91.9118Z" fill="white"/>
<path d="M97.751 91.9118H93.8856V79.8747H89.3759V76.8654H102.261V79.8747H97.751V91.9118Z" fill="white"/>
</g>
<path d="M8.22656 121.631C8.16797 121.051 7.90137 120.597 7.42676 120.269C6.95215 119.935 6.3457 119.768 5.60742 119.768C5.09766 119.768 4.64941 119.85 4.2627 120.014C3.87598 120.172 3.57715 120.395 3.36621 120.682C3.16113 120.963 3.05859 121.285 3.05859 121.648C3.05859 122.188 3.27832 122.601 3.71777 122.888C4.15723 123.175 4.71094 123.4 5.37891 123.564L6.60938 123.898C7.63477 124.139 8.50195 124.537 9.21094 125.094C9.91992 125.65 10.2773 126.447 10.2832 127.484C10.2773 128.205 10.0869 128.847 9.71191 129.409C9.33691 129.972 8.79492 130.414 8.08594 130.736C7.37695 131.053 6.5332 131.211 5.55469 131.211C4.61133 131.211 3.78809 131.062 3.08496 130.763C2.3877 130.458 1.83984 130.024 1.44141 129.462C1.04883 128.899 0.832031 128.234 0.791016 127.467H2.72461C2.7832 128.135 3.07324 128.645 3.59473 128.996C4.11621 129.348 4.76953 129.523 5.55469 129.523C6.08789 129.523 6.56543 129.438 6.9873 129.269C7.41504 129.093 7.74902 128.85 7.98926 128.539C8.23535 128.223 8.36133 127.859 8.36719 127.449C8.36133 126.939 8.15332 126.544 7.74316 126.263C7.33301 125.976 6.73828 125.732 5.95898 125.533L4.44727 125.129C2.23242 124.52 1.125 123.395 1.125 121.754C1.125 121.039 1.32129 120.403 1.71387 119.847C2.1123 119.29 2.65723 118.859 3.34863 118.555C4.04004 118.25 4.81055 118.098 5.66016 118.098C6.50977 118.098 7.26855 118.25 7.93652 118.555C8.60449 118.854 9.12891 119.272 9.50977 119.812C9.89062 120.345 10.0898 120.951 10.1074 121.631H8.22656ZM16.6641 122.949H14.7129V128.188C14.7129 128.674 14.8125 129.008 15.0117 129.189C15.2168 129.365 15.498 129.459 15.8555 129.471C16.0195 129.471 16.2773 129.459 16.6289 129.436C16.6641 129.424 16.7227 129.418 16.8047 129.418V131.053C16.4531 131.1 16.0605 131.123 15.627 131.123C15.1172 131.123 14.6514 131.029 14.2295 130.842C13.8076 130.654 13.4707 130.37 13.2188 129.989C12.9668 129.603 12.8438 129.131 12.8496 128.574V122.949H11.4434V121.455H12.8496V119.17H14.7129V121.455H16.6641V122.949ZM18.0527 128.311C18.0527 127.32 18.3867 126.614 19.0547 126.192C19.7227 125.771 20.5781 125.521 21.6211 125.445C22.0195 125.416 22.4531 125.39 22.9219 125.366C23.3965 125.337 23.7979 125.316 24.126 125.305L24.1172 124.549C24.1172 124.004 23.9531 123.585 23.625 123.292C23.2969 122.993 22.8164 122.844 22.1836 122.844C21.6504 122.844 21.2139 122.955 20.874 123.178C20.5342 123.395 20.3145 123.688 20.2148 124.057H18.3516C18.4102 123.529 18.6064 123.061 18.9404 122.65C19.2744 122.234 19.7256 121.912 20.2939 121.684C20.8682 121.449 21.5215 121.332 22.2539 121.332C22.8574 121.332 23.4375 121.426 23.9941 121.613C24.5566 121.801 25.0312 122.141 25.418 122.633C25.8047 123.125 25.998 123.799 25.998 124.654V131H24.1699V129.699H24.0996C23.8828 130.121 23.5371 130.479 23.0625 130.771C22.5938 131.064 21.9961 131.211 21.2695 131.211C20.6602 131.211 20.1123 131.097 19.626 130.868C19.1396 130.64 18.7559 130.309 18.4746 129.875C18.1934 129.436 18.0527 128.914 18.0527 128.311ZM19.8809 128.328C19.8809 128.773 20.0449 129.116 20.373 129.356C20.707 129.597 21.1465 129.717 21.6914 129.717C22.1836 129.717 22.6143 129.62 22.9834 129.427C23.3525 129.228 23.6367 128.964 23.8359 128.636C24.0352 128.302 24.1348 127.941 24.1348 127.555L24.126 126.685L21.8848 126.834C21.2461 126.881 20.751 127.027 20.3994 127.273C20.0537 127.514 19.8809 127.865 19.8809 128.328ZM29.0742 134.586C28.6523 134.586 28.3184 134.568 28.0723 134.533V132.969C28.3535 132.992 28.6348 133.004 28.916 133.004C29.1562 133.004 29.3555 132.98 29.5137 132.934C29.6719 132.887 29.8271 132.772 29.9795 132.591C30.1377 132.409 30.2871 132.131 30.4277 131.756L30.6562 131.123L27.1582 121.455H29.1621L31.5703 128.855H31.6758L34.084 121.455H36.1055L32.168 132.266C31.8926 133.033 31.5 133.61 30.9902 133.997C30.4863 134.39 29.8477 134.586 29.0742 134.586ZM53.2441 124.637C53.2441 125.961 52.998 127.118 52.5059 128.108C52.0137 129.093 51.3311 129.852 50.458 130.385C49.5908 130.912 48.6094 131.176 47.5137 131.176C46.4062 131.176 45.416 130.912 44.543 130.385C43.6758 129.852 42.9961 129.093 42.5039 128.108C42.0117 127.118 41.7656 125.961 41.7656 124.637C41.7656 123.307 42.0117 122.149 42.5039 121.165C42.9961 120.175 43.6758 119.416 44.543 118.889C45.416 118.361 46.4062 118.098 47.5137 118.098C48.6094 118.098 49.5908 118.361 50.458 118.889C51.3311 119.416 52.0137 120.175 52.5059 121.165C52.998 122.149 53.2441 123.307 53.2441 124.637ZM51.3281 124.637C51.3281 123.629 51.1641 122.768 50.8359 122.053C50.5078 121.338 50.0537 120.796 49.4736 120.427C48.8994 120.058 48.2461 119.873 47.5137 119.873C46.7754 119.873 46.1162 120.058 45.5361 120.427C44.9561 120.796 44.502 121.338 44.1738 122.053C43.8457 122.768 43.6816 123.629 43.6816 124.637C43.6816 125.645 43.8457 126.506 44.1738 127.221C44.502 127.936 44.9561 128.478 45.5361 128.847C46.1162 129.216 46.7754 129.4 47.5137 129.4C48.2461 129.4 48.8994 129.216 49.4736 128.847C50.0537 128.478 50.5078 127.936 50.8359 127.221C51.1641 126.5 51.3281 125.639 51.3281 124.637ZM59.8184 122.949H57.7617V131H55.8809V122.949H54.4043V121.455H55.8809V120.348C55.8809 119.504 56.1328 118.848 56.6367 118.379C57.1465 117.91 57.8438 117.676 58.7285 117.676C59.1562 117.676 59.584 117.717 60.0117 117.799V119.363C59.7012 119.316 59.4375 119.293 59.2207 119.293C58.7168 119.293 58.3477 119.401 58.1133 119.618C57.8789 119.829 57.7617 120.166 57.7617 120.629V121.455H59.8184V122.949ZM66.0762 122.949H64.0195V131H62.1387V122.949H60.6621V121.455H62.1387V120.348C62.1387 119.504 62.3906 118.848 62.8945 118.379C63.4043 117.91 64.1016 117.676 64.9863 117.676C65.4141 117.676 65.8418 117.717 66.2695 117.799V119.363C65.959 119.316 65.6953 119.293 65.4785 119.293C64.9746 119.293 64.6055 119.401 64.3711 119.618C64.1367 119.829 64.0195 120.166 64.0195 120.629V121.455H66.0762V122.949ZM67.6406 134.639H66.1465L67.0781 129.787H69.0469L67.6406 134.639ZM82.8633 121.631C82.8047 121.051 82.5381 120.597 82.0635 120.269C81.5889 119.935 80.9824 119.768 80.2441 119.768C79.7344 119.768 79.2861 119.85 78.8994 120.014C78.5127 120.172 78.2139 120.395 78.0029 120.682C77.7979 120.963 77.6953 121.285 77.6953 121.648C77.6953 122.188 77.915 122.601 78.3545 122.888C78.7939 123.175 79.3477 123.4 80.0156 123.564L81.2461 123.898C82.2715 124.139 83.1387 124.537 83.8477 125.094C84.5566 125.65 84.9141 126.447 84.9199 127.484C84.9141 128.205 84.7236 128.847 84.3486 129.409C83.9736 129.972 83.4316 130.414 82.7227 130.736C82.0137 131.053 81.1699 131.211 80.1914 131.211C79.248 131.211 78.4248 131.062 77.7217 130.763C77.0244 130.458 76.4766 130.024 76.0781 129.462C75.6855 128.899 75.4688 128.234 75.4277 127.467H77.3613C77.4199 128.135 77.71 128.645 78.2314 128.996C78.7529 129.348 79.4062 129.523 80.1914 129.523C80.7246 129.523 81.2021 129.438 81.624 129.269C82.0518 129.093 82.3857 128.85 82.626 128.539C82.8721 128.223 82.998 127.859 83.0039 127.449C82.998 126.939 82.79 126.544 82.3799 126.263C81.9697 125.976 81.375 125.732 80.5957 125.533L79.084 125.129C76.8691 124.52 75.7617 123.395 75.7617 121.754C75.7617 121.039 75.958 120.403 76.3506 119.847C76.749 119.29 77.2939 118.859 77.9854 118.555C78.6768 118.25 79.4473 118.098 80.2969 118.098C81.1465 118.098 81.9053 118.25 82.5732 118.555C83.2412 118.854 83.7656 119.272 84.1465 119.812C84.5273 120.345 84.7266 120.951 84.7441 121.631H82.8633ZM91.3008 122.949H89.3496V128.188C89.3496 128.674 89.4492 129.008 89.6484 129.189C89.8535 129.365 90.1348 129.459 90.4922 129.471C90.6562 129.471 90.9141 129.459 91.2656 129.436C91.3008 129.424 91.3594 129.418 91.4414 129.418V131.053C91.0898 131.1 90.6973 131.123 90.2637 131.123C89.7539 131.123 89.2881 131.029 88.8662 130.842C88.4443 130.654 88.1074 130.37 87.8555 129.989C87.6035 129.603 87.4805 129.131 87.4863 128.574V122.949H86.0801V121.455H87.4863V119.17H89.3496V121.455H91.3008V122.949ZM92.6895 128.311C92.6895 127.32 93.0234 126.614 93.6914 126.192C94.3594 125.771 95.2148 125.521 96.2578 125.445C96.6562 125.416 97.0898 125.39 97.5586 125.366C98.0332 125.337 98.4346 125.316 98.7627 125.305L98.7539 124.549C98.7539 124.004 98.5898 123.585 98.2617 123.292C97.9336 122.993 97.4531 122.844 96.8203 122.844C96.2871 122.844 95.8506 122.955 95.5107 123.178C95.1709 123.395 94.9512 123.688 94.8516 124.057H92.9883C93.0469 123.529 93.2432 123.061 93.5771 122.65C93.9111 122.234 94.3623 121.912 94.9307 121.684C95.5049 121.449 96.1582 121.332 96.8906 121.332C97.4941 121.332 98.0742 121.426 98.6309 121.613C99.1934 121.801 99.668 122.141 100.055 122.633C100.441 123.125 100.635 123.799 100.635 124.654V131H98.8066V129.699H98.7363C98.5195 130.121 98.1738 130.479 97.6992 130.771C97.2305 131.064 96.6328 131.211 95.9062 131.211C95.2969 131.211 94.749 131.097 94.2627 130.868C93.7764 130.64 93.3926 130.309 93.1113 129.875C92.8301 129.436 92.6895 128.914 92.6895 128.311ZM94.5176 128.328C94.5176 128.773 94.6816 129.116 95.0098 129.356C95.3438 129.597 95.7832 129.717 96.3281 129.717C96.8203 129.717 97.251 129.62 97.6201 129.427C97.9893 129.228 98.2734 128.964 98.4727 128.636C98.6719 128.302 98.7715 127.941 98.7715 127.555L98.7627 126.685L96.5215 126.834C95.8828 126.881 95.3877 127.027 95.0361 127.273C94.6904 127.514 94.5176 127.865 94.5176 128.328ZM103.711 134.586C103.289 134.586 102.955 134.568 102.709 134.533V132.969C102.99 132.992 103.271 133.004 103.553 133.004C103.793 133.004 103.992 132.98 104.15 132.934C104.309 132.887 104.464 132.772 104.616 132.591C104.774 132.409 104.924 132.131 105.064 131.756L105.293 131.123L101.795 121.455H103.799L106.207 128.855H106.312L108.721 121.455H110.742L106.805 132.266C106.529 133.033 106.137 133.61 105.627 133.997C105.123 134.39 104.484 134.586 103.711 134.586ZM118.037 118.273L121.342 124.039H121.482L124.805 118.273H127.002L122.379 126.008V131H120.445V126.008L115.84 118.273H118.037ZM130.922 131.193C130.031 131.193 129.249 130.988 128.575 130.578C127.901 130.168 127.38 129.594 127.011 128.855C126.642 128.111 126.457 127.25 126.457 126.271C126.457 125.287 126.642 124.423 127.011 123.679C127.38 122.935 127.901 122.357 128.575 121.947C129.249 121.537 130.031 121.332 130.922 121.332C131.807 121.332 132.586 121.537 133.26 121.947C133.934 122.357 134.452 122.938 134.815 123.688C135.185 124.432 135.369 125.293 135.369 126.271C135.369 127.25 135.185 128.111 134.815 128.855C134.452 129.594 133.934 130.168 133.26 130.578C132.586 130.988 131.807 131.193 130.922 131.193ZM130.922 129.629C131.479 129.629 131.947 129.479 132.328 129.181C132.709 128.882 132.993 128.48 133.181 127.977C133.374 127.467 133.471 126.898 133.471 126.271C133.471 125.645 133.374 125.076 133.181 124.566C132.993 124.051 132.706 123.641 132.319 123.336C131.938 123.031 131.473 122.879 130.922 122.879C130.359 122.879 129.882 123.031 129.489 123.336C129.103 123.641 128.812 124.051 128.619 124.566C128.432 125.076 128.338 125.645 128.338 126.271C128.338 126.898 128.432 127.467 128.619 127.977C128.812 128.48 129.103 128.882 129.489 129.181C129.882 129.479 130.359 129.629 130.922 129.629ZM143.279 121.455H145.143V131H143.314V129.348H143.209C142.98 129.881 142.62 130.312 142.128 130.64C141.636 130.962 141.047 131.123 140.361 131.123C139.74 131.123 139.192 130.985 138.718 130.71C138.243 130.435 137.874 130.027 137.61 129.488C137.347 128.949 137.215 128.293 137.215 127.52V121.455H139.096V127.291C139.096 127.719 139.178 128.094 139.342 128.416C139.506 128.738 139.731 128.987 140.019 129.163C140.312 129.333 140.648 129.418 141.029 129.418C141.393 129.418 141.747 129.33 142.093 129.154C142.438 128.973 142.723 128.703 142.945 128.346C143.168 127.982 143.279 127.543 143.279 127.027V121.455ZM148.658 131.123C148.436 131.123 148.225 131.067 148.025 130.956C147.832 130.845 147.68 130.692 147.568 130.499C147.457 130.306 147.404 130.098 147.41 129.875C147.404 129.652 147.457 129.444 147.568 129.251C147.68 129.058 147.832 128.905 148.025 128.794C148.225 128.683 148.436 128.627 148.658 128.627C148.875 128.627 149.08 128.683 149.273 128.794C149.467 128.905 149.619 129.058 149.73 129.251C149.848 129.444 149.906 129.652 149.906 129.875C149.906 130.098 149.848 130.306 149.73 130.499C149.619 130.692 149.467 130.845 149.273 130.956C149.08 131.067 148.875 131.123 148.658 131.123Z" fill="white"/>
<defs>
<clipPath id="clip0_636_684">
<rect width="93.5213" height="84.2534" fill="white" transform="translate(8.73935 7.87329)"/>
</clipPath>
</defs>
</svg>
