<svg width="24" height="24" viewBox="0 0 24 24" fill="none" xmlns="http://www.w3.org/2000/svg">
<path d="M20.6358 7.73514C20.6504 7.94294 20.6504 8.15079 20.6504 8.35859C20.6504 14.6968 15.9074 22 7.2386 22C4.5679 22 2.08694 21.2132 0 19.8477C0.379457 19.8922 0.744269 19.907 1.13832 19.907C3.34198 19.907 5.37057 19.15 6.9905 17.8586C4.91816 17.8141 3.18147 16.4336 2.58311 14.5336C2.87501 14.5781 3.16687 14.6078 3.47337 14.6078C3.89658 14.6078 4.31984 14.5484 4.71385 14.4445C2.55395 13.9992 0.933974 12.0695 0.933974 9.73905V9.6797C1.56149 10.036 2.29125 10.2586 3.06467 10.2883C1.795 9.4273 0.963174 7.95779 0.963174 6.29528C0.963174 5.40467 1.19663 4.58826 1.60529 3.87576C3.92574 6.78513 7.41371 8.6851 11.3248 8.89295C11.2519 8.5367 11.2081 8.16564 11.2081 7.79454C11.2081 5.15232 13.3096 3 15.9219 3C17.2792 3 18.5051 3.5789 19.3661 4.51406C20.4314 4.30626 21.453 3.90546 22.3579 3.35625C22.0076 4.46956 21.2633 5.40472 20.2855 5.99842C21.2342 5.89457 22.1536 5.62732 23 5.25627C22.358 6.20623 21.5553 7.05229 20.6358 7.73514Z" fill="black"/>
</svg>
