<svg width="24" height="24" viewBox="0 0 24 24" fill="none" xmlns="http://www.w3.org/2000/svg">
<path d="M23.24 6.34349C22.9783 5.35807 22.2073 4.58199 21.2282 4.31861C19.4536 3.84003 12.3378 3.84003 12.3378 3.84003C12.3378 3.84003 5.22192 3.84003 3.44729 4.31861C2.46825 4.58203 1.69717 5.35807 1.43546 6.34349C0.959961 8.12961 0.959961 11.8562 0.959961 11.8562C0.959961 11.8562 0.959961 15.5828 1.43546 17.3689C1.69717 18.3543 2.46825 19.0981 3.44729 19.3614C5.22192 19.84 12.3378 19.84 12.3378 19.84C12.3378 19.84 19.4536 19.84 21.2282 19.3614C22.2073 19.0981 22.9783 18.3543 23.24 17.3689C23.7155 15.5828 23.7155 11.8562 23.7155 11.8562C23.7155 11.8562 23.7155 8.12961 23.24 6.34349ZM10.0105 15.2397V8.47273L15.9579 11.8563L10.0105 15.2397Z" fill="black"/>
</svg>
