<svg width="24" height="24" viewBox="0 0 24 24" fill="none" xmlns="http://www.w3.org/2000/svg">
<g clip-path="url(#clip0_41_36)">
<path d="M11.5226 6.61158C8.25354 6.61158 5.61672 9.2484 5.61672 12.5174C5.61672 15.7865 8.25354 18.4233 11.5226 18.4233C14.7916 18.4233 17.4284 15.7865 17.4284 12.5174C17.4284 9.2484 14.7916 6.61158 11.5226 6.61158ZM11.5226 16.357C9.41004 16.357 7.683 14.6351 7.683 12.5174C7.683 10.3998 9.40489 8.67786 11.5226 8.67786C13.6402 8.67786 15.3621 10.3998 15.3621 12.5174C15.3621 14.6351 13.6351 16.357 11.5226 16.357ZM19.0475 6.37C19.0475 7.13586 18.4307 7.74752 17.67 7.74752C16.9041 7.74752 16.2925 7.13072 16.2925 6.37C16.2925 5.60928 16.9093 4.99249 17.67 4.99249C18.4307 4.99249 19.0475 5.60928 19.0475 6.37ZM22.959 7.76808C22.8717 5.92282 22.4502 4.28831 21.0984 2.94163C19.7517 1.59495 18.1172 1.17347 16.2719 1.08095C14.3701 0.973015 8.66988 0.973015 6.76808 1.08095C4.92796 1.16833 3.29345 1.58981 1.94163 2.93649C0.589814 4.28317 0.173475 5.91768 0.0809548 7.76294C-0.0269849 9.66474 -0.0269849 15.365 0.0809548 17.2668C0.168335 19.112 0.589814 20.7466 1.94163 22.0932C3.29345 23.4399 4.92282 23.8614 6.76808 23.9539C8.66988 24.0618 14.3701 24.0618 16.2719 23.9539C18.1172 23.8665 19.7517 23.445 21.0984 22.0932C22.445 20.7466 22.8665 19.112 22.959 17.2668C23.067 15.365 23.067 9.66988 22.959 7.76808ZM20.5021 19.3074C20.1012 20.3148 19.3251 21.0909 18.3125 21.497C16.7962 22.0984 13.1982 21.9596 11.5226 21.9596C9.84693 21.9596 6.2438 22.0932 4.73264 21.497C3.72521 21.0961 2.94907 20.3199 2.54301 19.3074C1.94163 17.7911 2.08041 14.1931 2.08041 12.5174C2.08041 10.8418 1.94677 7.23866 2.54301 5.7275C2.94393 4.72007 3.72007 3.94393 4.73264 3.53787C6.24894 2.93649 9.84693 3.07527 11.5226 3.07527C13.1982 3.07527 16.8013 2.94163 18.3125 3.53787C19.3199 3.93879 20.0961 4.71493 20.5021 5.7275C21.1035 7.2438 20.9647 10.8418 20.9647 12.5174C20.9647 14.1931 21.1035 17.7962 20.5021 19.3074Z" fill="black"/>
</g>
<defs>
<clipPath id="clip0_41_36">
<rect width="24" height="24" fill="white"/>
</clipPath>
</defs>
</svg>
