<svg width="36" height="22" viewBox="0 0 36 22" fill="none" xmlns="http://www.w3.org/2000/svg">
<path d="M1.36921 0.000135008C1.19032 -0.00239492 1.01271 0.0306544 0.846709 0.0973622C0.680704 0.16407 0.529612 0.263106 0.402214 0.388714C0.274817 0.514322 0.173654 0.663999 0.104606 0.829044C0.0355574 0.994089 0 1.17121 0 1.35012C0 1.52902 0.0355574 1.70615 0.104606 1.87119C0.173654 2.03624 0.274817 2.18591 0.402214 2.31152C0.529612 2.43713 0.680704 2.53617 0.846709 2.60287C1.01271 2.66958 1.19032 2.70263 1.36921 2.7001H33.7688C33.9477 2.70263 34.1253 2.66958 34.2913 2.60287C34.4573 2.53617 34.6084 2.43713 34.7358 2.31152C34.8632 2.18591 34.9644 2.03624 35.0334 1.87119C35.1025 1.70615 35.138 1.52902 35.138 1.35012C35.138 1.17121 35.1025 0.994089 35.0334 0.829044C34.9644 0.663999 34.8632 0.514322 34.7358 0.388714C34.6084 0.263106 34.4573 0.16407 34.2913 0.0973622C34.1253 0.0306544 33.9477 -0.00239492 33.7688 0.000135008H1.36921ZM1.36921 9.45002C1.19032 9.44749 1.01271 9.48054 0.846709 9.54724C0.680704 9.61395 0.529612 9.71299 0.402214 9.8386C0.274817 9.9642 0.173654 10.1139 0.104606 10.2789C0.0355574 10.444 0 10.6211 0 10.8C0 10.9789 0.0355574 11.156 0.104606 11.3211C0.173654 11.4861 0.274817 11.6358 0.402214 11.7614C0.529612 11.887 0.680704 11.986 0.846709 12.0528C1.01271 12.1195 1.19032 12.1525 1.36921 12.15H33.7688C33.9477 12.1525 34.1253 12.1195 34.2913 12.0528C34.4573 11.986 34.6084 11.887 34.7358 11.7614C34.8632 11.6358 34.9644 11.4861 35.0334 11.3211C35.1025 11.156 35.138 10.9789 35.138 10.8C35.138 10.6211 35.1025 10.444 35.0334 10.2789C34.9644 10.1139 34.8632 9.9642 34.7358 9.8386C34.6084 9.71299 34.4573 9.61395 34.2913 9.54724C34.1253 9.48054 33.9477 9.44749 33.7688 9.45002H1.36921ZM1.36921 18.8999C1.19032 18.8974 1.01271 18.9304 0.846709 18.9971C0.680704 19.0638 0.529612 19.1629 0.402214 19.2885C0.274817 19.4141 0.173654 19.5638 0.104606 19.7288C0.0355574 19.8939 0 20.071 0 20.2499C0 20.4288 0.0355574 20.6059 0.104606 20.771C0.173654 20.936 0.274817 21.0857 0.402214 21.2113C0.529612 21.3369 0.680704 21.4359 0.846709 21.5026C1.01271 21.5693 1.19032 21.6024 1.36921 21.5999H33.7688C33.9477 21.6024 34.1253 21.5693 34.2913 21.5026C34.4573 21.4359 34.6084 21.3369 34.7358 21.2113C34.8632 21.0857 34.9644 20.936 35.0334 20.771C35.1025 20.6059 35.138 20.4288 35.138 20.2499C35.138 20.071 35.1025 19.8939 35.0334 19.7288C34.9644 19.5638 34.8632 19.4141 34.7358 19.2885C34.6084 19.1629 34.4573 19.0638 34.2913 18.9971C34.1253 18.9304 33.9477 18.8974 33.7688 18.8999H1.36921Z" fill="black"/>
</svg>
